<?xml version="1.0" encoding="utf-8"?>
<!-- Generator: Adobe Illustrator 23.0.4, SVG Export Plug-In . SVG Version: 6.00 Build 0)  -->
<svg version="1.1" id="Layer_1" xmlns="http://www.w3.org/2000/svg" xmlns:xlink="http://www.w3.org/1999/xlink" x="0px" y="0px"
	 viewBox="0 0 18 19" style="enable-background:new 0 0 18 19;" xml:space="preserve">
<style type="text/css">
	.st0{fill-rule:evenodd;clip-rule:evenodd;fill:#FFFFFF;}
</style>
<path class="st0" d="M9,13.7c-0.6,0-1.2-0.5-1.2-1.2c0-0.6,0.5-1.2,1.2-1.2c0.7,0,1.2,0.5,1.2,1.2C10.2,13.2,9.6,13.7,9,13.7z
	 M7.9,5.2C7.9,5,8,4.9,8.1,4.9h1.7c0.1,0,0.2,0.1,0.2,0.2v1.4L9.5,10c0,0.1-0.1,0.2-0.2,0.2H8.7c-0.1,0-0.2-0.1-0.2-0.2L7.9,6.6
	L7.9,5.2L7.9,5.2z M18,12.4l-3.3-2.9l3.3-3l-4.4-0.4l0.9-4.3l-3.8,2.3L8.9,0L7.2,4.1L3.4,1.9l1,4.3L0,6.6l3.3,2.9l-3.3,3l4.4,0.4
	l-0.9,4.3l3.8-2.3L9.1,19l1.7-4.1l3.8,2.2l-1-4.3L18,12.4z"/>
</svg>
