<svg xmlns="http://www.w3.org/2000/svg" xmlns:xlink="http://www.w3.org/1999/xlink" width="18" height="19" viewBox="0 0 18 19">
    <defs>
        <path id="b" d="M8.719 3.531a8.722 8.722 0 0 1 8.718 8.719 8.722 8.722 0 0 1-8.718 8.719A8.722 8.722 0 0 1 0 12.25a8.722 8.722 0 0 1 8.719-8.719zm3.54 12.829a.531.531 0 0 0 .534-.542c0-.32-.126-.443-.34-.58-2.51-1.5-5.453-1.557-8.333-.92-.263.055-.478.228-.478.59 0 .285.215.555.556.555.102 0 .28-.056.418-.091 2.52-.517 5.073-.46 7.267.861.137.081.228.127.376.127zm.946-2.306a.681.681 0 0 0 .682-.686c0-.306-.113-.524-.398-.693-1.736-1.033-3.94-1.6-6.222-1.6-1.463 0-2.461.205-3.438.479-.363.102-.545.351-.545.728 0 .376.305.682.682.682.158 0 .25-.046.418-.092 2.914-.79 6.191-.267 8.388 1.034.127.067.25.148.433.148zm1.09-2.68a.815.815 0 0 0 .815-.819c0-.418-.18-.636-.453-.794-1.966-1.146-4.655-1.68-7.221-1.68-1.509 0-2.894.172-4.131.534-.317.091-.612.362-.612.84 0 .468.355.83.82.83.168 0 .326-.056.453-.092 2.896-.808 7.372-.45 9.875 1.045.158.09.27.137.453.137z"/>
        <filter id="a" width="105.7%" height="111.5%" x="-2.9%" y="-2.9%" filterUnits="objectBoundingBox">
            <feOffset dy="1" in="SourceAlpha" result="shadowOffsetOuter1"/>
            <feColorMatrix in="shadowOffsetOuter1" values="0 0 0 0 0 0 0 0 0 0 0 0 0 0 0 0 0 0 0.2 0"/>
        </filter>
    </defs>
    <g fill="none" fill-rule="nonzero" transform="translate(0 -3)">
        <use fill="#000" filter="url(#a)" xlink:href="#b"/>
        <use fill="#FFC600" xlink:href="#b"/>
    </g>
</svg>
