<?xml version="1.0" encoding="utf-8"?>
<!-- Generator: Adobe Illustrator 23.0.4, SVG Export Plug-In . SVG Version: 6.00 Build 0)  -->
<svg version="1.1" id="Layer_1" xmlns="http://www.w3.org/2000/svg" xmlns:xlink="http://www.w3.org/1999/xlink" x="0px" y="0px"
	 viewBox="0 0 14 14" style="enable-background:new 0 0 14 14;" xml:space="preserve">
<style type="text/css">
	.st0{fill:#FFC600;}
</style>
<title></title>
<desc>Created with Sketch.</desc>
<g id="Page-1">
	<g id="Desktop-HD" transform="translate(-657.000000, -344.000000)">
		<g id="special-episode" transform="translate(225.000000, 325.000000)">
			<g id="episode-header">
				<g id="ep-date" transform="translate(332.000000, 16.000000)">
					<g id="download" transform="translate(100.000000, -0.000000)">
						<path class="st0" d="M14,10c0,3.9-3.1,7-7,7s-7-3.1-7-7s3.1-7,7-7S14,6.1,14,10z M5.8,6.7V10h-2c-0.3,0-0.5,0.4-0.2,0.6
							l3.2,3.2c0.1,0.1,0.3,0.1,0.5,0l3.2-3.2c0.2-0.2,0.1-0.6-0.2-0.6h-2V6.7c0-0.2-0.2-0.3-0.3-0.3H6.1C5.9,6.4,5.8,6.5,5.8,6.7z"
							/>
					</g>
				</g>
			</g>
		</g>
	</g>
</g>
</svg>
