<svg xmlns="http://www.w3.org/2000/svg" xmlns:xlink="http://www.w3.org/1999/xlink" width="18" height="17" viewBox="0 0 18 17">
    <defs>
        <path id="b" d="M930.15 20.584c.011.16.011.32.011.48 0 4.876-3.712 10.496-10.496 10.496-2.09 0-4.032-.606-5.665-1.656.297.034.582.045.89.045a7.388 7.388 0 0 0 4.58-1.576 3.696 3.696 0 0 1-3.448-2.558c.228.034.456.057.696.057a3.9 3.9 0 0 0 .971-.126 3.69 3.69 0 0 1-2.958-3.62v-.046a3.715 3.715 0 0 0 1.667.468 3.686 3.686 0 0 1-1.644-3.072c0-.685.182-1.314.502-1.862a10.486 10.486 0 0 0 7.607 3.86 4.164 4.164 0 0 1-.092-.845 3.687 3.687 0 0 1 3.69-3.689 3.68 3.68 0 0 1 2.695 1.165 7.263 7.263 0 0 0 2.341-.89 3.68 3.68 0 0 1-1.621 2.033 7.396 7.396 0 0 0 2.124-.572 7.93 7.93 0 0 1-1.85 1.908z"/>
        <filter id="a" width="105.6%" height="113.7%" x="-2.8%" y="-3.4%" filterUnits="objectBoundingBox">
            <feOffset dy="1" in="SourceAlpha" result="shadowOffsetOuter1"/>
            <feColorMatrix in="shadowOffsetOuter1" values="0 0 0 0 0 0 0 0 0 0 0 0 0 0 0 0 0 0 0.2 0"/>
        </filter>
    </defs>
    <g fill="none" fill-rule="nonzero" transform="translate(-914 -16)">
        <use fill="#000" filter="url(#a)" xlink:href="#b"/>
        <use fill="#FFC600" xlink:href="#b"/>
    </g>
</svg>
