<?xml version="1.0" encoding="utf-8"?>
<!-- Generator: Adobe Illustrator 23.0.4, SVG Export Plug-In . SVG Version: 6.00 Build 0)  -->
<svg version="1.1" id="Layer_1" xmlns="http://www.w3.org/2000/svg" xmlns:xlink="http://www.w3.org/1999/xlink" x="0px" y="0px"
	 viewBox="0 0 11 8" style="enable-background:new 0 0 11 8;" xml:space="preserve">
<style type="text/css">
	.st0{opacity:0.4;}
	.st1{fill:#FFC600;}
</style>
<path class="st0" d="M10.3,1.5c0.2,0,0.4,0.1,0.5,0.2c0.3,0.3,0.3,0.8,0,1.1L6,7.8c-0.3,0.3-0.8,0.3-1,0l-4.8-5C0.1,2.7,0,2.5,0,2.3
	c0-0.4,0.3-0.8,0.7-0.8H10.3L10.3,1.5z"/>
<path class="st1" d="M10.3,0.5c0.2,0,0.4,0.1,0.5,0.2c0.3,0.3,0.3,0.8,0,1.1L6,6.8c-0.3,0.3-0.8,0.3-1,0l-4.8-5C0.1,1.7,0,1.5,0,1.3
	c0-0.4,0.3-0.8,0.7-0.8H10.3L10.3,0.5z"/>
</svg>
