<svg xmlns="http://www.w3.org/2000/svg" width="18" height="20" viewBox="0 0 18 20">
    <defs>
        <filter id="a" width="102.9%" height="126.3%" x="-1.5%" y="-13.2%" filterUnits="objectBoundingBox">
            <feOffset dy="1" in="SourceAlpha" result="shadowOffsetOuter1"/>
            <feColorMatrix in="shadowOffsetOuter1" result="shadowMatrixOuter1" values="0 0 0 0 0 0 0 0 0 0 0 0 0 0 0 0 0 0 0.2 0"/>
            <feMerge>
                <feMergeNode in="shadowMatrixOuter1"/>
                <feMergeNode in="SourceGraphic"/>
            </feMerge>
        </filter>
    </defs>
    <path fill="#FFF" fill-rule="evenodd" d="M8.987 13.655c-.629 0-1.158-.53-1.158-1.16 0-.64.53-1.183 1.158-1.183a1.2 1.2 0 0 1 1.184 1.184c0 .629-.543 1.159-1.184 1.159zm-1.084-8.52c0-.124.11-.234.234-.234h1.726c.124 0 .235.11.235.234v1.38L9.494 9.98c-.013.099-.124.198-.235.198H8.74c-.111 0-.221-.1-.234-.198l-.604-3.44V5.135zM18 12.28l-3.337-2.89 3.289-2.943-4.398-.375.93-4.315-3.778 2.28L8.922 0 7.206 4.066 3.389 1.848l1.002 4.3L0 6.593l3.337 2.89-3.29 2.943 4.4.377-.932 4.314 3.779-2.281 1.783 4.038 1.717-4.066 3.816 2.219-1.001-4.3L18 12.28z" filter="url(#a)"/>
</svg>
