<svg xmlns="http://www.w3.org/2000/svg" xmlns:xlink="http://www.w3.org/1999/xlink" width="21" height="18" viewBox="0 0 21 18">
    <defs>
        <path id="b" d="M252.857 20.462a.498.498 0 0 1 .269-.095c.083 0 .204.043.269.095l6.48 5.335v5.765c0 .311-.252.563-.563.563l-3.938-.01a.563.563 0 0 1-.562-.563v-3.364a.563.563 0 0 0-.563-.563H252a.563.563 0 0 0-.562.563v3.364c0 .31-.251.561-.56.563l-3.94.01a.563.563 0 0 1-.562-.563v-5.761l6.482-5.339zm10.238 3.629c.086.07.156.216.156.327a.49.49 0 0 1-.096.268l-.896 1.09a.479.479 0 0 1-.326.153.49.49 0 0 1-.269-.097l-8.27-6.811a.498.498 0 0 0-.268-.095.498.498 0 0 0-.27.095l-8.269 6.811a.49.49 0 0 1-.268.097.478.478 0 0 1-.326-.154l-.897-1.09a.49.49 0 0 1-.097-.27c0-.109.07-.254.154-.324l8.899-7.33a1.96 1.96 0 0 1 1.072-.384c.334 0 .814.173 1.072.385l3.148 2.59v-2.553c0-.233.189-.422.422-.422h1.968c.233 0 .422.189.422.422v4.87l2.94 2.422z"/>
        <filter id="a" width="104.9%" height="112.7%" x="-2.5%" y="-3.2%" filterUnits="objectBoundingBox">
            <feOffset dy="1" in="SourceAlpha" result="shadowOffsetOuter1"/>
            <feColorMatrix in="shadowOffsetOuter1" values="0 0 0 0 0 0 0 0 0 0 0 0 0 0 0 0 0 0 0.2 0"/>
        </filter>
    </defs>
    <g fill="none" fill-rule="nonzero" transform="translate(-243 -16)">
        <use fill="#000" filter="url(#a)" xlink:href="#b"/>
        <use fill="#FFC600" xlink:href="#b"/>
    </g>
</svg>
