<svg xmlns="http://www.w3.org/2000/svg" width="14" height="16" viewBox="0 0 14 16">
    <defs>
        <filter id="a" width="101.5%" height="117.8%" x="-.8%" y="-5.6%" filterUnits="objectBoundingBox">
            <feOffset dy="1" in="SourceAlpha" result="shadowOffsetOuter1"/>
            <feColorMatrix in="shadowOffsetOuter1" result="shadowMatrixOuter1" values="0 0 0 0 0 0 0 0 0 0 0 0 0 0 0 0 0 0 0.2 0"/>
            <feMerge>
                <feMergeNode in="shadowMatrixOuter1"/>
                <feMergeNode in="SourceGraphic"/>
            </feMerge>
        </filter>
    </defs>
    <path fill="#FFC600" fill-rule="nonzero" d="M13.781 10.411A6.78 6.78 0 0 1 7 17.192a6.78 6.78 0 0 1-6.781-6.78A6.78 6.78 0 0 1 7 3.63a6.78 6.78 0 0 1 6.781 6.781zM5.797 7.24v3.172H3.858a.328.328 0 0 0-.232.56l3.142 3.126a.325.325 0 0 0 .462 0l3.141-3.125a.328.328 0 0 0-.232-.56H8.203V7.238a.33.33 0 0 0-.328-.328h-1.75a.33.33 0 0 0-.328.328z" filter="url(#a)" transform="translate(0 -3)"/>
</svg>
