<svg xmlns="http://www.w3.org/2000/svg" xmlns:xlink="http://www.w3.org/1999/xlink" width="16" height="20" viewBox="0 0 16 20">
    <defs>
        <path id="b" d="M9.402 20.426c-.181.668-.864.824-1.527.824-.663 0-1.346-.156-1.527-.824-.269-1-.723-3.504-.723-4.67 0-1.235 1.095-1.537 2.25-1.537s2.25.302 2.25 1.538c0 1.158-.453 3.662-.723 4.67zm-3.887-7.032a.211.211 0 0 1-.022.323c-.328.238-.579.54-.747.892a.21.21 0 0 1-.332.066 5.05 5.05 0 0 1-1.602-3.69c0-2.84 2.351-5.142 5.21-5.061a5.075 5.075 0 0 1 4.914 4.935 5.049 5.049 0 0 1-1.6 3.817.21.21 0 0 1-.332-.067 2.339 2.339 0 0 0-.747-.892.211.211 0 0 1-.022-.323 3.365 3.365 0 0 0 1.015-2.41 3.379 3.379 0 0 0-3.508-3.372 3.384 3.384 0 0 0-3.24 3.23 3.365 3.365 0 0 0 1.013 2.552zM7.875 3.25a7.87 7.87 0 0 1 7.875 7.875 7.874 7.874 0 0 1-4.42 7.08.21.21 0 0 1-.3-.221c.09-.585.162-1.167.197-1.66a6.188 6.188 0 0 0 2.835-5.199A6.194 6.194 0 0 0 7.86 4.938c-3.384.008-6.15 2.765-6.171 6.148a6.186 6.186 0 0 0 2.748 5.18.212.212 0 0 1 .095.16c.037.47.106 1.013.19 1.558a.21.21 0 0 1-.3.222A7.874 7.874 0 0 1 0 11.125 7.87 7.87 0 0 1 7.875 3.25zm0 5.625a2.25 2.25 0 1 1 0 4.5 2.25 2.25 0 0 1 0-4.5z"/>
        <filter id="a" width="106.3%" height="111.1%" x="-3.2%" y="-2.8%" filterUnits="objectBoundingBox">
            <feOffset dy="1" in="SourceAlpha" result="shadowOffsetOuter1"/>
            <feColorMatrix in="shadowOffsetOuter1" values="0 0 0 0 0 0 0 0 0 0 0 0 0 0 0 0 0 0 0.2 0"/>
        </filter>
    </defs>
    <g fill="none" fill-rule="nonzero" transform="translate(0 -3)">
        <use fill="#000" filter="url(#a)" xlink:href="#b"/>
        <use fill="#FFC600" xlink:href="#b"/>
    </g>
</svg>
